<svg xmlns="http://www.w3.org/2000/svg" xmlns:xlink="http://www.w3.org/1999/xlink" width="500" zoomAndPan="magnify" viewBox="0 0 375 374.999991" height="500" preserveAspectRatio="xMidYMid meet" version="1.0"><defs><g/><linearGradient x1="0" gradientTransform="matrix(0.75, 0, 0, 0.75, 0.0000045, 0)" y1="0" x2="499.999979" gradientUnits="userSpaceOnUse" y2="0" id="bd230a098c"><stop stop-opacity="1" stop-color="rgb(54.899597%, 32.199097%, 100%)" offset="0"/><stop stop-opacity="1" stop-color="rgb(55.075073%, 32.295227%, 99.726868%)" offset="0.00390625"/><stop stop-opacity="1" stop-color="rgb(55.252075%, 32.392883%, 99.453735%)" offset="0.0078125"/><stop stop-opacity="1" stop-color="rgb(55.427551%, 32.489014%, 99.180603%)" offset="0.0117187"/><stop stop-opacity="1" stop-color="rgb(55.604553%, 32.585144%, 98.908997%)" offset="0.015625"/><stop stop-opacity="1" stop-color="rgb(55.780029%, 32.681274%, 98.635864%)" offset="0.0195312"/><stop stop-opacity="1" stop-color="rgb(55.955505%, 32.777405%, 98.362732%)" offset="0.0234375"/><stop stop-opacity="1" stop-color="rgb(56.130981%, 32.873535%, 98.0896%)" offset="0.0273438"/><stop stop-opacity="1" stop-color="rgb(56.307983%, 32.971191%, 97.817993%)" offset="0.03125"/><stop stop-opacity="1" stop-color="rgb(56.483459%, 33.067322%, 97.544861%)" offset="0.0351562"/><stop stop-opacity="1" stop-color="rgb(56.660461%, 33.163452%, 97.273254%)" offset="0.0390625"/><stop stop-opacity="1" stop-color="rgb(56.835938%, 33.259583%, 97.000122%)" offset="0.0429687"/><stop stop-opacity="1" stop-color="rgb(57.012939%, 33.357239%, 96.72699%)" offset="0.046875"/><stop stop-opacity="1" stop-color="rgb(57.188416%, 33.453369%, 96.453857%)" offset="0.0507812"/><stop stop-opacity="1" stop-color="rgb(57.365417%, 33.5495%, 96.182251%)" offset="0.0546875"/><stop stop-opacity="1" stop-color="rgb(57.540894%, 33.64563%, 95.909119%)" offset="0.0585938"/><stop stop-opacity="1" stop-color="rgb(57.717896%, 33.743286%, 95.635986%)" offset="0.0625"/><stop stop-opacity="1" stop-color="rgb(57.893372%, 33.839417%, 95.362854%)" offset="0.0664062"/><stop stop-opacity="1" stop-color="rgb(58.070374%, 33.935547%, 95.091248%)" offset="0.0703125"/><stop stop-opacity="1" stop-color="rgb(58.24585%, 34.031677%, 94.818115%)" offset="0.0742187"/><stop stop-opacity="1" stop-color="rgb(58.422852%, 34.129333%, 94.546509%)" offset="0.078125"/><stop stop-opacity="1" stop-color="rgb(58.598328%, 34.225464%, 94.273376%)" offset="0.0820312"/><stop stop-opacity="1" stop-color="rgb(58.77533%, 34.321594%, 94.000244%)" offset="0.0859375"/><stop stop-opacity="1" stop-color="rgb(58.950806%, 34.417725%, 93.727112%)" offset="0.0898437"/><stop stop-opacity="1" stop-color="rgb(59.127808%, 34.515381%, 93.455505%)" offset="0.09375"/><stop stop-opacity="1" stop-color="rgb(59.303284%, 34.611511%, 93.182373%)" offset="0.0976562"/><stop stop-opacity="1" stop-color="rgb(59.480286%, 34.707642%, 92.910767%)" offset="0.101562"/><stop stop-opacity="1" stop-color="rgb(59.655762%, 34.803772%, 92.637634%)" offset="0.105469"/><stop stop-opacity="1" stop-color="rgb(59.832764%, 34.901428%, 92.364502%)" offset="0.109375"/><stop stop-opacity="1" stop-color="rgb(60.00824%, 34.997559%, 92.09137%)" offset="0.113281"/><stop stop-opacity="1" stop-color="rgb(60.183716%, 35.093689%, 91.819763%)" offset="0.117188"/><stop stop-opacity="1" stop-color="rgb(60.359192%, 35.189819%, 91.546631%)" offset="0.121094"/><stop stop-opacity="1" stop-color="rgb(60.536194%, 35.287476%, 91.273499%)" offset="0.125"/><stop stop-opacity="1" stop-color="rgb(60.71167%, 35.383606%, 91.000366%)" offset="0.128906"/><stop stop-opacity="1" stop-color="rgb(60.888672%, 35.479736%, 90.72876%)" offset="0.132812"/><stop stop-opacity="1" stop-color="rgb(61.064148%, 35.575867%, 90.455627%)" offset="0.136719"/><stop stop-opacity="1" stop-color="rgb(61.24115%, 35.671997%, 90.184021%)" offset="0.140625"/><stop stop-opacity="1" stop-color="rgb(61.416626%, 35.768127%, 89.910889%)" offset="0.144531"/><stop stop-opacity="1" stop-color="rgb(61.593628%, 35.865784%, 89.637756%)" offset="0.148437"/><stop stop-opacity="1" stop-color="rgb(61.769104%, 35.961914%, 89.364624%)" offset="0.152344"/><stop stop-opacity="1" stop-color="rgb(61.946106%, 36.058044%, 89.093018%)" offset="0.15625"/><stop stop-opacity="1" stop-color="rgb(62.121582%, 36.154175%, 88.819885%)" offset="0.160156"/><stop stop-opacity="1" stop-color="rgb(62.298584%, 36.251831%, 88.548279%)" offset="0.164062"/><stop stop-opacity="1" stop-color="rgb(62.47406%, 36.347961%, 88.275146%)" offset="0.167969"/><stop stop-opacity="1" stop-color="rgb(62.651062%, 36.444092%, 88.002014%)" offset="0.171875"/><stop stop-opacity="1" stop-color="rgb(62.826538%, 36.540222%, 87.728882%)" offset="0.175781"/><stop stop-opacity="1" stop-color="rgb(63.00354%, 36.637878%, 87.457275%)" offset="0.179687"/><stop stop-opacity="1" stop-color="rgb(63.179016%, 36.734009%, 87.184143%)" offset="0.183594"/><stop stop-opacity="1" stop-color="rgb(63.356018%, 36.830139%, 86.911011%)" offset="0.1875"/><stop stop-opacity="1" stop-color="rgb(63.531494%, 36.92627%, 86.637878%)" offset="0.191406"/><stop stop-opacity="1" stop-color="rgb(63.708496%, 37.023926%, 86.366272%)" offset="0.195312"/><stop stop-opacity="1" stop-color="rgb(63.883972%, 37.120056%, 86.09314%)" offset="0.199219"/><stop stop-opacity="1" stop-color="rgb(64.059448%, 37.216187%, 85.821533%)" offset="0.203125"/><stop stop-opacity="1" stop-color="rgb(64.234924%, 37.312317%, 85.548401%)" offset="0.207031"/><stop stop-opacity="1" stop-color="rgb(64.411926%, 37.409973%, 85.275269%)" offset="0.210938"/><stop stop-opacity="1" stop-color="rgb(64.587402%, 37.506104%, 85.002136%)" offset="0.214844"/><stop stop-opacity="1" stop-color="rgb(64.764404%, 37.602234%, 84.73053%)" offset="0.21875"/><stop stop-opacity="1" stop-color="rgb(64.93988%, 37.698364%, 84.457397%)" offset="0.222656"/><stop stop-opacity="1" stop-color="rgb(65.116882%, 37.796021%, 84.185791%)" offset="0.226562"/><stop stop-opacity="1" stop-color="rgb(65.292358%, 37.892151%, 83.912659%)" offset="0.230469"/><stop stop-opacity="1" stop-color="rgb(65.46936%, 37.988281%, 83.639526%)" offset="0.234375"/><stop stop-opacity="1" stop-color="rgb(65.644836%, 38.084412%, 83.366394%)" offset="0.238281"/><stop stop-opacity="1" stop-color="rgb(65.821838%, 38.180542%, 83.094788%)" offset="0.242188"/><stop stop-opacity="1" stop-color="rgb(65.997314%, 38.276672%, 82.821655%)" offset="0.246094"/><stop stop-opacity="1" stop-color="rgb(66.174316%, 38.374329%, 82.548523%)" offset="0.25"/><stop stop-opacity="1" stop-color="rgb(66.349792%, 38.470459%, 82.275391%)" offset="0.253906"/><stop stop-opacity="1" stop-color="rgb(66.526794%, 38.566589%, 82.003784%)" offset="0.257812"/><stop stop-opacity="1" stop-color="rgb(66.702271%, 38.66272%, 81.730652%)" offset="0.261719"/><stop stop-opacity="1" stop-color="rgb(66.879272%, 38.760376%, 81.459045%)" offset="0.265625"/><stop stop-opacity="1" stop-color="rgb(67.054749%, 38.856506%, 81.185913%)" offset="0.269531"/><stop stop-opacity="1" stop-color="rgb(67.23175%, 38.952637%, 80.912781%)" offset="0.273437"/><stop stop-opacity="1" stop-color="rgb(67.407227%, 39.048767%, 80.639648%)" offset="0.277344"/><stop stop-opacity="1" stop-color="rgb(67.584229%, 39.146423%, 80.368042%)" offset="0.28125"/><stop stop-opacity="1" stop-color="rgb(67.759705%, 39.242554%, 80.09491%)" offset="0.285156"/><stop stop-opacity="1" stop-color="rgb(67.936707%, 39.338684%, 79.823303%)" offset="0.289062"/><stop stop-opacity="1" stop-color="rgb(68.112183%, 39.434814%, 79.550171%)" offset="0.292969"/><stop stop-opacity="1" stop-color="rgb(68.287659%, 39.532471%, 79.277039%)" offset="0.296875"/><stop stop-opacity="1" stop-color="rgb(68.463135%, 39.628601%, 79.003906%)" offset="0.300781"/><stop stop-opacity="1" stop-color="rgb(68.640137%, 39.724731%, 78.7323%)" offset="0.304687"/><stop stop-opacity="1" stop-color="rgb(68.815613%, 39.820862%, 78.459167%)" offset="0.308594"/><stop stop-opacity="1" stop-color="rgb(68.992615%, 39.918518%, 78.186035%)" offset="0.3125"/><stop stop-opacity="1" stop-color="rgb(69.168091%, 40.014648%, 77.912903%)" offset="0.316406"/><stop stop-opacity="1" stop-color="rgb(69.345093%, 40.110779%, 77.641296%)" offset="0.320312"/><stop stop-opacity="1" stop-color="rgb(69.520569%, 40.206909%, 77.368164%)" offset="0.324219"/><stop stop-opacity="1" stop-color="rgb(69.697571%, 40.304565%, 77.096558%)" offset="0.328125"/><stop stop-opacity="1" stop-color="rgb(69.873047%, 40.400696%, 76.823425%)" offset="0.332031"/><stop stop-opacity="1" stop-color="rgb(70.050049%, 40.496826%, 76.550293%)" offset="0.335937"/><stop stop-opacity="1" stop-color="rgb(70.225525%, 40.592957%, 76.277161%)" offset="0.339844"/><stop stop-opacity="1" stop-color="rgb(70.402527%, 40.690613%, 76.005554%)" offset="0.34375"/><stop stop-opacity="1" stop-color="rgb(70.578003%, 40.786743%, 75.732422%)" offset="0.347656"/><stop stop-opacity="1" stop-color="rgb(70.755005%, 40.882874%, 75.460815%)" offset="0.351562"/><stop stop-opacity="1" stop-color="rgb(70.930481%, 40.979004%, 75.187683%)" offset="0.355469"/><stop stop-opacity="1" stop-color="rgb(71.107483%, 41.075134%, 74.914551%)" offset="0.359375"/><stop stop-opacity="1" stop-color="rgb(71.282959%, 41.171265%, 74.641418%)" offset="0.363281"/><stop stop-opacity="1" stop-color="rgb(71.459961%, 41.268921%, 74.369812%)" offset="0.367187"/><stop stop-opacity="1" stop-color="rgb(71.635437%, 41.365051%, 74.09668%)" offset="0.371094"/><stop stop-opacity="1" stop-color="rgb(71.812439%, 41.461182%, 73.823547%)" offset="0.375"/><stop stop-opacity="1" stop-color="rgb(71.987915%, 41.557312%, 73.550415%)" offset="0.378906"/><stop stop-opacity="1" stop-color="rgb(72.163391%, 41.654968%, 73.278809%)" offset="0.382812"/><stop stop-opacity="1" stop-color="rgb(72.338867%, 41.751099%, 73.005676%)" offset="0.386719"/><stop stop-opacity="1" stop-color="rgb(72.515869%, 41.847229%, 72.73407%)" offset="0.390625"/><stop stop-opacity="1" stop-color="rgb(72.691345%, 41.943359%, 72.460938%)" offset="0.394531"/><stop stop-opacity="1" stop-color="rgb(72.868347%, 42.041016%, 72.187805%)" offset="0.398438"/><stop stop-opacity="1" stop-color="rgb(73.043823%, 42.137146%, 71.914673%)" offset="0.402344"/><stop stop-opacity="1" stop-color="rgb(73.220825%, 42.233276%, 71.643066%)" offset="0.40625"/><stop stop-opacity="1" stop-color="rgb(73.396301%, 42.329407%, 71.369934%)" offset="0.410156"/><stop stop-opacity="1" stop-color="rgb(73.573303%, 42.427063%, 71.098328%)" offset="0.414062"/><stop stop-opacity="1" stop-color="rgb(73.748779%, 42.523193%, 70.825195%)" offset="0.417969"/><stop stop-opacity="1" stop-color="rgb(73.925781%, 42.619324%, 70.552063%)" offset="0.421875"/><stop stop-opacity="1" stop-color="rgb(74.101257%, 42.715454%, 70.278931%)" offset="0.425781"/><stop stop-opacity="1" stop-color="rgb(74.278259%, 42.81311%, 70.007324%)" offset="0.429688"/><stop stop-opacity="1" stop-color="rgb(74.453735%, 42.909241%, 69.734192%)" offset="0.433594"/><stop stop-opacity="1" stop-color="rgb(74.630737%, 43.005371%, 69.46106%)" offset="0.4375"/><stop stop-opacity="1" stop-color="rgb(74.806213%, 43.101501%, 69.187927%)" offset="0.441406"/><stop stop-opacity="1" stop-color="rgb(74.983215%, 43.199158%, 68.916321%)" offset="0.445312"/><stop stop-opacity="1" stop-color="rgb(75.158691%, 43.295288%, 68.643188%)" offset="0.449219"/><stop stop-opacity="1" stop-color="rgb(75.335693%, 43.391418%, 68.371582%)" offset="0.453125"/><stop stop-opacity="1" stop-color="rgb(75.511169%, 43.487549%, 68.09845%)" offset="0.457031"/><stop stop-opacity="1" stop-color="rgb(75.688171%, 43.583679%, 67.825317%)" offset="0.460938"/><stop stop-opacity="1" stop-color="rgb(75.863647%, 43.67981%, 67.552185%)" offset="0.464844"/><stop stop-opacity="1" stop-color="rgb(76.039124%, 43.777466%, 67.280579%)" offset="0.46875"/><stop stop-opacity="1" stop-color="rgb(76.2146%, 43.873596%, 67.007446%)" offset="0.472656"/><stop stop-opacity="1" stop-color="rgb(76.391602%, 43.969727%, 66.73584%)" offset="0.476562"/><stop stop-opacity="1" stop-color="rgb(76.567078%, 44.065857%, 66.462708%)" offset="0.480469"/><stop stop-opacity="1" stop-color="rgb(76.74408%, 44.163513%, 66.189575%)" offset="0.484375"/><stop stop-opacity="1" stop-color="rgb(76.919556%, 44.259644%, 65.916443%)" offset="0.488281"/><stop stop-opacity="1" stop-color="rgb(77.096558%, 44.355774%, 65.644836%)" offset="0.492188"/><stop stop-opacity="1" stop-color="rgb(77.272034%, 44.451904%, 65.371704%)" offset="0.496094"/><stop stop-opacity="1" stop-color="rgb(77.449036%, 44.549561%, 65.098572%)" offset="0.5"/><stop stop-opacity="1" stop-color="rgb(77.624512%, 44.645691%, 64.825439%)" offset="0.503906"/><stop stop-opacity="1" stop-color="rgb(77.801514%, 44.741821%, 64.553833%)" offset="0.507812"/><stop stop-opacity="1" stop-color="rgb(77.97699%, 44.837952%, 64.280701%)" offset="0.511719"/><stop stop-opacity="1" stop-color="rgb(78.153992%, 44.935608%, 64.009094%)" offset="0.515625"/><stop stop-opacity="1" stop-color="rgb(78.329468%, 45.031738%, 63.735962%)" offset="0.519531"/><stop stop-opacity="1" stop-color="rgb(78.50647%, 45.127869%, 63.46283%)" offset="0.523437"/><stop stop-opacity="1" stop-color="rgb(78.681946%, 45.223999%, 63.189697%)" offset="0.527344"/><stop stop-opacity="1" stop-color="rgb(78.858948%, 45.321655%, 62.918091%)" offset="0.53125"/><stop stop-opacity="1" stop-color="rgb(79.034424%, 45.417786%, 62.644958%)" offset="0.535156"/><stop stop-opacity="1" stop-color="rgb(79.211426%, 45.513916%, 62.373352%)" offset="0.539062"/><stop stop-opacity="1" stop-color="rgb(79.386902%, 45.610046%, 62.10022%)" offset="0.542969"/><stop stop-opacity="1" stop-color="rgb(79.563904%, 45.707703%, 61.827087%)" offset="0.546875"/><stop stop-opacity="1" stop-color="rgb(79.73938%, 45.803833%, 61.553955%)" offset="0.550781"/><stop stop-opacity="1" stop-color="rgb(79.916382%, 45.899963%, 61.282349%)" offset="0.554687"/><stop stop-opacity="1" stop-color="rgb(80.091858%, 45.996094%, 61.009216%)" offset="0.558594"/><stop stop-opacity="1" stop-color="rgb(80.267334%, 46.092224%, 60.736084%)" offset="0.5625"/><stop stop-opacity="1" stop-color="rgb(80.44281%, 46.188354%, 60.462952%)" offset="0.566406"/><stop stop-opacity="1" stop-color="rgb(80.619812%, 46.286011%, 60.191345%)" offset="0.570312"/><stop stop-opacity="1" stop-color="rgb(80.795288%, 46.382141%, 59.918213%)" offset="0.574219"/><stop stop-opacity="1" stop-color="rgb(80.97229%, 46.478271%, 59.646606%)" offset="0.578125"/><stop stop-opacity="1" stop-color="rgb(81.147766%, 46.574402%, 59.373474%)" offset="0.582031"/><stop stop-opacity="1" stop-color="rgb(81.324768%, 46.672058%, 59.100342%)" offset="0.585937"/><stop stop-opacity="1" stop-color="rgb(81.500244%, 46.768188%, 58.827209%)" offset="0.589844"/><stop stop-opacity="1" stop-color="rgb(81.677246%, 46.864319%, 58.555603%)" offset="0.59375"/><stop stop-opacity="1" stop-color="rgb(81.852722%, 46.960449%, 58.282471%)" offset="0.597656"/><stop stop-opacity="1" stop-color="rgb(82.029724%, 47.058105%, 58.010864%)" offset="0.601562"/><stop stop-opacity="1" stop-color="rgb(82.2052%, 47.154236%, 57.737732%)" offset="0.605469"/><stop stop-opacity="1" stop-color="rgb(82.382202%, 47.250366%, 57.4646%)" offset="0.609375"/><stop stop-opacity="1" stop-color="rgb(82.557678%, 47.346497%, 57.191467%)" offset="0.613281"/><stop stop-opacity="1" stop-color="rgb(82.73468%, 47.444153%, 56.919861%)" offset="0.617187"/><stop stop-opacity="1" stop-color="rgb(82.910156%, 47.540283%, 56.646729%)" offset="0.621094"/><stop stop-opacity="1" stop-color="rgb(83.087158%, 47.636414%, 56.373596%)" offset="0.625"/><stop stop-opacity="1" stop-color="rgb(83.262634%, 47.732544%, 56.100464%)" offset="0.628906"/><stop stop-opacity="1" stop-color="rgb(83.439636%, 47.8302%, 55.828857%)" offset="0.632812"/><stop stop-opacity="1" stop-color="rgb(83.615112%, 47.926331%, 55.555725%)" offset="0.636719"/><stop stop-opacity="1" stop-color="rgb(83.792114%, 48.022461%, 55.284119%)" offset="0.640625"/><stop stop-opacity="1" stop-color="rgb(83.96759%, 48.118591%, 55.010986%)" offset="0.644531"/><stop stop-opacity="1" stop-color="rgb(84.143066%, 48.216248%, 54.737854%)" offset="0.648437"/><stop stop-opacity="1" stop-color="rgb(84.318542%, 48.312378%, 54.464722%)" offset="0.652344"/><stop stop-opacity="1" stop-color="rgb(84.495544%, 48.408508%, 54.193115%)" offset="0.65625"/><stop stop-opacity="1" stop-color="rgb(84.671021%, 48.504639%, 53.919983%)" offset="0.660156"/><stop stop-opacity="1" stop-color="rgb(84.848022%, 48.602295%, 53.648376%)" offset="0.664062"/><stop stop-opacity="1" stop-color="rgb(85.023499%, 48.698425%, 53.375244%)" offset="0.667969"/><stop stop-opacity="1" stop-color="rgb(85.2005%, 48.794556%, 53.102112%)" offset="0.671875"/><stop stop-opacity="1" stop-color="rgb(85.375977%, 48.890686%, 52.828979%)" offset="0.675781"/><stop stop-opacity="1" stop-color="rgb(85.552979%, 48.986816%, 52.557373%)" offset="0.679687"/><stop stop-opacity="1" stop-color="rgb(85.728455%, 49.082947%, 52.284241%)" offset="0.683594"/><stop stop-opacity="1" stop-color="rgb(85.905457%, 49.180603%, 52.011108%)" offset="0.6875"/><stop stop-opacity="1" stop-color="rgb(86.080933%, 49.276733%, 51.737976%)" offset="0.691406"/><stop stop-opacity="1" stop-color="rgb(86.257935%, 49.372864%, 51.46637%)" offset="0.695312"/><stop stop-opacity="1" stop-color="rgb(86.433411%, 49.468994%, 51.193237%)" offset="0.699219"/><stop stop-opacity="1" stop-color="rgb(86.610413%, 49.56665%, 50.921631%)" offset="0.703125"/><stop stop-opacity="1" stop-color="rgb(86.785889%, 49.662781%, 50.648499%)" offset="0.707031"/><stop stop-opacity="1" stop-color="rgb(86.962891%, 49.758911%, 50.375366%)" offset="0.710937"/><stop stop-opacity="1" stop-color="rgb(87.138367%, 49.855042%, 50.102234%)" offset="0.714844"/><stop stop-opacity="1" stop-color="rgb(87.315369%, 49.952698%, 49.830627%)" offset="0.71875"/><stop stop-opacity="1" stop-color="rgb(87.490845%, 50.048828%, 49.557495%)" offset="0.722656"/><stop stop-opacity="1" stop-color="rgb(87.667847%, 50.144958%, 49.285889%)" offset="0.726562"/><stop stop-opacity="1" stop-color="rgb(87.843323%, 50.241089%, 49.012756%)" offset="0.730469"/><stop stop-opacity="1" stop-color="rgb(88.018799%, 50.338745%, 48.739624%)" offset="0.734375"/><stop stop-opacity="1" stop-color="rgb(88.194275%, 50.434875%, 48.466492%)" offset="0.738281"/><stop stop-opacity="1" stop-color="rgb(88.371277%, 50.531006%, 48.194885%)" offset="0.742187"/><stop stop-opacity="1" stop-color="rgb(88.546753%, 50.627136%, 47.921753%)" offset="0.746094"/><stop stop-opacity="1" stop-color="rgb(88.723755%, 50.724792%, 47.648621%)" offset="0.75"/><stop stop-opacity="1" stop-color="rgb(88.899231%, 50.820923%, 47.375488%)" offset="0.753906"/><stop stop-opacity="1" stop-color="rgb(89.076233%, 50.917053%, 47.103882%)" offset="0.757812"/><stop stop-opacity="1" stop-color="rgb(89.251709%, 51.013184%, 46.83075%)" offset="0.761719"/><stop stop-opacity="1" stop-color="rgb(89.428711%, 51.11084%, 46.559143%)" offset="0.765625"/><stop stop-opacity="1" stop-color="rgb(89.604187%, 51.20697%, 46.286011%)" offset="0.769531"/><stop stop-opacity="1" stop-color="rgb(89.781189%, 51.303101%, 46.012878%)" offset="0.773438"/><stop stop-opacity="1" stop-color="rgb(89.956665%, 51.399231%, 45.739746%)" offset="0.777344"/><stop stop-opacity="1" stop-color="rgb(90.133667%, 51.495361%, 45.46814%)" offset="0.78125"/><stop stop-opacity="1" stop-color="rgb(90.309143%, 51.591492%, 45.195007%)" offset="0.785156"/><stop stop-opacity="1" stop-color="rgb(90.486145%, 51.689148%, 44.923401%)" offset="0.789062"/><stop stop-opacity="1" stop-color="rgb(90.661621%, 51.785278%, 44.650269%)" offset="0.792969"/><stop stop-opacity="1" stop-color="rgb(90.838623%, 51.881409%, 44.377136%)" offset="0.796875"/><stop stop-opacity="1" stop-color="rgb(91.014099%, 51.977539%, 44.104004%)" offset="0.800781"/><stop stop-opacity="1" stop-color="rgb(91.191101%, 52.075195%, 43.832397%)" offset="0.804688"/><stop stop-opacity="1" stop-color="rgb(91.366577%, 52.171326%, 43.559265%)" offset="0.808594"/><stop stop-opacity="1" stop-color="rgb(91.543579%, 52.267456%, 43.286133%)" offset="0.8125"/><stop stop-opacity="1" stop-color="rgb(91.719055%, 52.363586%, 43.013%)" offset="0.816406"/><stop stop-opacity="1" stop-color="rgb(91.896057%, 52.461243%, 42.741394%)" offset="0.820312"/><stop stop-opacity="1" stop-color="rgb(92.071533%, 52.557373%, 42.468262%)" offset="0.824219"/><stop stop-opacity="1" stop-color="rgb(92.247009%, 52.653503%, 42.196655%)" offset="0.828125"/><stop stop-opacity="1" stop-color="rgb(92.422485%, 52.749634%, 41.923523%)" offset="0.832031"/><stop stop-opacity="1" stop-color="rgb(92.599487%, 52.84729%, 41.650391%)" offset="0.835938"/><stop stop-opacity="1" stop-color="rgb(92.774963%, 52.94342%, 41.377258%)" offset="0.839844"/><stop stop-opacity="1" stop-color="rgb(92.951965%, 53.039551%, 41.105652%)" offset="0.84375"/><stop stop-opacity="1" stop-color="rgb(93.127441%, 53.135681%, 40.83252%)" offset="0.847656"/><stop stop-opacity="1" stop-color="rgb(93.304443%, 53.233337%, 40.560913%)" offset="0.851562"/><stop stop-opacity="1" stop-color="rgb(93.479919%, 53.329468%, 40.287781%)" offset="0.855469"/><stop stop-opacity="1" stop-color="rgb(93.656921%, 53.425598%, 40.014648%)" offset="0.859375"/><stop stop-opacity="1" stop-color="rgb(93.832397%, 53.521729%, 39.741516%)" offset="0.863281"/><stop stop-opacity="1" stop-color="rgb(94.009399%, 53.619385%, 39.46991%)" offset="0.867188"/><stop stop-opacity="1" stop-color="rgb(94.184875%, 53.715515%, 39.196777%)" offset="0.871094"/><stop stop-opacity="1" stop-color="rgb(94.361877%, 53.811646%, 38.923645%)" offset="0.875"/><stop stop-opacity="1" stop-color="rgb(94.537354%, 53.907776%, 38.650513%)" offset="0.878906"/><stop stop-opacity="1" stop-color="rgb(94.714355%, 54.005432%, 38.378906%)" offset="0.882812"/><stop stop-opacity="1" stop-color="rgb(94.889832%, 54.101562%, 38.105774%)" offset="0.886719"/><stop stop-opacity="1" stop-color="rgb(95.066833%, 54.197693%, 37.834167%)" offset="0.890625"/><stop stop-opacity="1" stop-color="rgb(95.24231%, 54.293823%, 37.561035%)" offset="0.894531"/><stop stop-opacity="1" stop-color="rgb(95.419312%, 54.389954%, 37.287903%)" offset="0.898438"/><stop stop-opacity="1" stop-color="rgb(95.594788%, 54.486084%, 37.014771%)" offset="0.902344"/><stop stop-opacity="1" stop-color="rgb(95.77179%, 54.58374%, 36.743164%)" offset="0.90625"/><stop stop-opacity="1" stop-color="rgb(95.947266%, 54.679871%, 36.470032%)" offset="0.910156"/><stop stop-opacity="1" stop-color="rgb(96.122742%, 54.776001%, 36.198425%)" offset="0.914062"/><stop stop-opacity="1" stop-color="rgb(96.298218%, 54.872131%, 35.925293%)" offset="0.917969"/><stop stop-opacity="1" stop-color="rgb(96.47522%, 54.969788%, 35.652161%)" offset="0.921875"/><stop stop-opacity="1" stop-color="rgb(96.650696%, 55.065918%, 35.379028%)" offset="0.925781"/><stop stop-opacity="1" stop-color="rgb(96.827698%, 55.162048%, 35.107422%)" offset="0.929688"/><stop stop-opacity="1" stop-color="rgb(97.003174%, 55.258179%, 34.83429%)" offset="0.933594"/><stop stop-opacity="1" stop-color="rgb(97.180176%, 55.355835%, 34.561157%)" offset="0.9375"/><stop stop-opacity="1" stop-color="rgb(97.355652%, 55.451965%, 34.288025%)" offset="0.941406"/><stop stop-opacity="1" stop-color="rgb(97.532654%, 55.548096%, 34.016418%)" offset="0.945312"/><stop stop-opacity="1" stop-color="rgb(97.70813%, 55.644226%, 33.743286%)" offset="0.949219"/><stop stop-opacity="1" stop-color="rgb(97.885132%, 55.741882%, 33.47168%)" offset="0.953125"/><stop stop-opacity="1" stop-color="rgb(98.060608%, 55.838013%, 33.198547%)" offset="0.957031"/><stop stop-opacity="1" stop-color="rgb(98.23761%, 55.934143%, 32.925415%)" offset="0.960938"/><stop stop-opacity="1" stop-color="rgb(98.413086%, 56.030273%, 32.652283%)" offset="0.964844"/><stop stop-opacity="1" stop-color="rgb(98.590088%, 56.12793%, 32.380676%)" offset="0.96875"/><stop stop-opacity="1" stop-color="rgb(98.765564%, 56.22406%, 32.107544%)" offset="0.972656"/><stop stop-opacity="1" stop-color="rgb(98.942566%, 56.32019%, 31.835938%)" offset="0.976562"/><stop stop-opacity="1" stop-color="rgb(99.118042%, 56.416321%, 31.562805%)" offset="0.980469"/><stop stop-opacity="1" stop-color="rgb(99.295044%, 56.513977%, 31.289673%)" offset="0.984375"/><stop stop-opacity="1" stop-color="rgb(99.47052%, 56.610107%, 31.016541%)" offset="0.988281"/><stop stop-opacity="1" stop-color="rgb(99.647522%, 56.706238%, 30.744934%)" offset="0.992188"/><stop stop-opacity="1" stop-color="rgb(99.822998%, 56.802368%, 30.471802%)" offset="0.996094"/><stop stop-opacity="1" stop-color="rgb(99.998474%, 56.898499%, 30.198669%)" offset="1"/></linearGradient><clipPath id="02cadc87aa"><path d="M 112.5 117 L 251 117 L 251 211.574219 L 112.5 211.574219 Z M 112.5 117 " clip-rule="nonzero"/></clipPath><clipPath id="4eef11d4c8"><path d="M 235 95.324219 L 262.5 95.324219 L 262.5 123 L 235 123 Z M 235 95.324219 " clip-rule="nonzero"/></clipPath></defs><rect x="-37.5" width="450" fill="#ffffff" y="-37.499999" height="449.999989" fill-opacity="1"/><rect x="-37.5" fill="url(#bd230a098c)" width="450" y="-37.499999" height="449.999989"/><g clip-path="url(#02cadc87aa)"><path fill="#66545e" d="M 128.867188 117.378906 L 188.085938 117.378906 L 188.085938 122.199219 L 135.9375 122.199219 C 134.003906 122.199219 132.421875 123.777344 132.421875 125.703125 L 132.421875 180.617188 C 132.421875 182.542969 134.003906 184.121094 135.9375 184.121094 L 226.757812 184.121094 C 228.691406 184.121094 230.273438 182.542969 230.273438 180.617188 L 230.273438 163.089844 L 237.890625 163.089844 L 237.890625 184.890625 C 237.890625 186.257812 237.199219 187.476562 236.148438 188.210938 L 237.890625 188.210938 C 237.890625 188.210938 242.1875 193.273438 250.78125 203.398438 C 249.605469 208.027344 247.265625 210.753906 243.75 211.574219 C 243.75 211.574219 202.734375 211.574219 120.703125 211.574219 C 116.65625 211.46875 113.921875 208.742188 112.5 203.398438 C 112.5 203.398438 116.796875 198.335938 125.390625 188.210938 L 126.546875 188.210938 C 125.496094 187.476562 124.804688 186.257812 124.804688 184.890625 L 124.804688 121.429688 C 124.804688 119.199219 126.632812 117.378906 128.867188 117.378906 Z M 171.679688 205.734375 L 191.601562 205.734375 C 192.566406 205.734375 193.359375 206.523438 193.359375 207.488281 C 193.359375 208.449219 192.566406 209.238281 191.601562 209.238281 L 171.679688 209.238281 C 170.714844 209.238281 169.921875 208.449219 169.921875 207.488281 C 169.921875 206.523438 170.714844 205.734375 171.679688 205.734375 Z M 160.546875 203.980469 C 162.890625 200.476562 164.0625 198.722656 164.0625 198.722656 C 187.5 198.722656 199.21875 198.722656 199.21875 198.722656 C 201.5625 202.230469 202.734375 203.980469 202.734375 203.980469 C 174.609375 203.980469 160.546875 203.980469 160.546875 203.980469 Z M 160.546875 203.980469 " fill-opacity="1" fill-rule="evenodd"/></g><path fill="#aa6f73" d="M 172.265625 154.328125 L 183.984375 154.328125 L 183.984375 166.011719 L 172.265625 166.011719 Z M 172.265625 154.328125 " fill-opacity="1" fill-rule="evenodd"/><path fill="#a39193" d="M 190.429688 153.742188 L 200.835938 153.742188 L 200.835938 164.117188 L 190.429688 164.117188 Z M 190.429688 153.742188 " fill-opacity="1" fill-rule="evenodd"/><path fill="#f6e0b5" d="M 227.304688 135.628906 L 249.574219 135.628906 L 249.574219 157.832031 L 227.304688 157.832031 Z M 227.304688 135.628906 " fill-opacity="1" fill-rule="evenodd"/><path fill="#f4f6fc" d="M 209.835938 149.726562 L 222.65625 149.726562 L 222.65625 162.507812 L 209.835938 162.507812 Z M 209.835938 149.726562 " fill-opacity="1" fill-rule="evenodd"/><path fill="#aa6f73" d="M 198.117188 135.707031 L 210.9375 135.707031 L 210.9375 148.488281 L 198.117188 148.488281 Z M 198.117188 135.707031 " fill-opacity="1" fill-rule="evenodd"/><path fill="#f6e0b5" d="M 193.394531 119.3125 L 206.214844 119.3125 L 206.214844 132.09375 L 193.394531 132.09375 Z M 193.394531 119.3125 " fill-opacity="1" fill-rule="evenodd"/><path fill="#f4f6fc" d="M 179.953125 140.964844 L 190.359375 140.964844 L 190.359375 151.335938 L 179.953125 151.335938 Z M 179.953125 140.964844 " fill-opacity="1" fill-rule="evenodd"/><path fill="#a39193" d="M 213.277344 114.019531 L 231.445312 114.019531 L 231.445312 132.128906 L 213.277344 132.128906 Z M 213.277344 114.019531 " fill-opacity="1" fill-rule="evenodd"/><path fill="#aa6f73" d="M 216.832031 97.117188 L 229.652344 97.117188 L 229.652344 109.894531 L 216.832031 109.894531 Z M 216.832031 97.117188 " fill-opacity="1" fill-rule="evenodd"/><g clip-path="url(#4eef11d4c8)"><path fill="#f4f6fc" d="M 235.542969 95.324219 L 262.5 95.324219 L 262.5 122.199219 L 235.542969 122.199219 Z M 235.542969 95.324219 " fill-opacity="1" fill-rule="evenodd"/></g><g fill="#545454" fill-opacity="1"><g transform="translate(91.218749, 248.57594)"><g><path d="M 2.84375 0 L 6.808594 0 L 6.808594 -5.730469 L 11.289062 -10.367188 L 18.097656 0 L 23.03125 0 L 14.039062 -13.023438 L 22.859375 -22.0625 L 17.550781 -22.0625 L 6.808594 -10.554688 L 6.808594 -22.0625 L 2.84375 -22.0625 Z M 2.84375 0 "/></g></g></g><g fill="#545454" fill-opacity="1"><g transform="translate(114.492871, 248.57594)"><g><path d="M 6.527344 0.3125 C 8.386719 0.3125 10.039062 -0.28125 11.382812 -2.234375 L 11.632812 0 L 14.773438 0 L 14.773438 -9.460938 C 14.773438 -13.273438 12.273438 -15.925781 8.027344 -15.925781 C 4.949219 -15.925781 2.96875 -14.554688 1.46875 -12.507812 L 4.386719 -10.398438 C 5.058594 -11.539062 6.261719 -12.601562 8.058594 -12.601562 C 10.070312 -12.601562 11.132812 -11.289062 11.132812 -9.308594 L 7.074219 -9.308594 C 3.574219 -9.308594 0.859375 -8.183594 0.859375 -4.792969 C 0.859375 -1.53125 3.324219 0.3125 6.527344 0.3125 Z M 7.074219 -2.90625 C 5.589844 -2.90625 4.761719 -3.636719 4.761719 -4.667969 C 4.761719 -5.652344 5.558594 -6.558594 7.292969 -6.558594 L 11.132812 -6.558594 C 11.070312 -4.605469 9.246094 -2.90625 7.074219 -2.90625 Z M 7.074219 -2.90625 "/></g></g></g><g fill="#545454" fill-opacity="1"><g transform="translate(131.054806, 248.57594)"><g><path d="M 7.808594 0.3125 C 8.886719 0.3125 10.039062 0.0625 10.617188 -0.15625 L 10.617188 -3.605469 C 10.101562 -3.355469 9.246094 -3.046875 8.449219 -3.046875 C 7.449219 -3.046875 6.683594 -3.480469 6.683594 -4.980469 L 6.683594 -12.414062 L 10.617188 -12.414062 L 10.617188 -15.601562 L 6.683594 -15.601562 L 6.683594 -22.1875 L 2.96875 -19.472656 L 2.96875 -15.601562 L 0.390625 -15.601562 L 0.390625 -12.414062 L 2.90625 -12.414062 L 2.90625 -4.308594 C 2.90625 -1.46875 4.730469 0.3125 7.808594 0.3125 Z M 7.808594 0.3125 "/></g></g></g><g fill="#545454" fill-opacity="1"><g transform="translate(142.82455, 248.57594)"><g><path d="M 8.761719 0.3125 C 11.382812 0.3125 13.460938 -0.609375 15.164062 -2.5 L 12.539062 -4.792969 C 11.445312 -3.574219 10.195312 -3.136719 8.792969 -3.136719 C 6.339844 -3.136719 5.214844 -4.511719 4.886719 -6.558594 L 15.601562 -6.558594 C 15.675781 -6.777344 15.738281 -7.417969 15.738281 -8.058594 C 15.738281 -11.539062 13.976562 -15.925781 8.511719 -15.925781 C 3.230469 -15.925781 0.859375 -11.804688 0.859375 -7.746094 C 0.859375 -3.542969 3.386719 0.3125 8.761719 0.3125 Z M 4.886719 -9.308594 C 5.246094 -11.257812 6.230469 -12.726562 8.480469 -12.726562 C 10.460938 -12.726562 11.742188 -11.539062 11.992188 -9.308594 Z M 4.886719 -9.308594 "/></g></g></g><g fill="#545454" fill-opacity="1"><g transform="translate(159.480143, 248.57594)"><g><path d="M 2.265625 0 L 6.042969 0 L 6.042969 -8.542969 C 6.042969 -11.257812 7.417969 -12.414062 9.554688 -12.414062 C 11.507812 -12.414062 12.539062 -10.929688 12.539062 -8.886719 L 12.539062 0 L 16.300781 0 L 16.300781 -9.367188 C 16.300781 -12.632812 14.742188 -15.925781 10.648438 -15.925781 C 9.121094 -15.925781 7.292969 -15.320312 6.042969 -13.789062 L 6.042969 -15.601562 L 2.265625 -15.601562 Z M 2.265625 0 "/></g></g></g><g fill="#545454" fill-opacity="1"><g transform="translate(177.603051, 248.57594)"><g><path d="M 2.171875 -18.550781 L 6.136719 -18.550781 L 6.136719 -22.0625 L 2.171875 -22.0625 Z M 2.265625 0 L 6.042969 0 L 6.042969 -15.601562 L 2.265625 -15.601562 Z M 2.265625 0 "/></g></g></g><g fill="#545454" fill-opacity="1"><g transform="translate(185.907433, 248.57594)"><g><path d="M 6.527344 0.3125 C 8.386719 0.3125 10.039062 -0.28125 11.382812 -2.234375 L 11.632812 0 L 14.773438 0 L 14.773438 -9.460938 C 14.773438 -13.273438 12.273438 -15.925781 8.027344 -15.925781 C 4.949219 -15.925781 2.96875 -14.554688 1.46875 -12.507812 L 4.386719 -10.398438 C 5.058594 -11.539062 6.261719 -12.601562 8.058594 -12.601562 C 10.070312 -12.601562 11.132812 -11.289062 11.132812 -9.308594 L 7.074219 -9.308594 C 3.574219 -9.308594 0.859375 -8.183594 0.859375 -4.792969 C 0.859375 -1.53125 3.324219 0.3125 6.527344 0.3125 Z M 7.074219 -2.90625 C 5.589844 -2.90625 4.761719 -3.636719 4.761719 -4.667969 C 4.761719 -5.652344 5.558594 -6.558594 7.292969 -6.558594 L 11.132812 -6.558594 C 11.070312 -4.605469 9.246094 -2.90625 7.074219 -2.90625 Z M 7.074219 -2.90625 "/></g></g></g><g fill="#545454" fill-opacity="1"><g transform="translate(202.469367, 248.57594)"><g/></g></g><g fill="#545454" fill-opacity="1"><g transform="translate(210.149359, 248.57594)"><g><path d="M 0.1875 0 L 4.511719 0 L 6.230469 -4.792969 L 14.804688 -4.792969 L 16.503906 0 L 20.785156 0 L 11.992188 -22.0625 L 9.027344 -22.0625 Z M 7.574219 -8.183594 L 10.523438 -16.238281 L 13.460938 -8.183594 Z M 7.574219 -8.183594 "/></g></g></g><g fill="#545454" fill-opacity="1"><g transform="translate(231.11324, 248.57594)"><g><path d="M 5.433594 0.3125 C 6.339844 0.3125 7.480469 0.15625 8.277344 0 L 8.277344 -3.199219 C 7.871094 -3.136719 7.449219 -3.109375 7.230469 -3.109375 C 6.464844 -3.109375 5.980469 -3.417969 5.980469 -4.152344 L 5.980469 -22.0625 L 2.171875 -22.0625 L 2.171875 -3.109375 C 2.171875 -0.359375 3.636719 0.3125 5.433594 0.3125 Z M 5.433594 0.3125 "/></g></g></g><g fill="#545454" fill-opacity="1"><g transform="translate(240.057621, 248.57594)"><g><path d="M 5.433594 0.3125 C 6.339844 0.3125 7.480469 0.15625 8.277344 0 L 8.277344 -3.199219 C 7.871094 -3.136719 7.449219 -3.109375 7.230469 -3.109375 C 6.464844 -3.109375 5.980469 -3.417969 5.980469 -4.152344 L 5.980469 -22.0625 L 2.171875 -22.0625 L 2.171875 -3.109375 C 2.171875 -0.359375 3.636719 0.3125 5.433594 0.3125 Z M 5.433594 0.3125 "/></g></g></g><g fill="#545454" fill-opacity="1"><g transform="translate(249.002002, 248.57594)"><g><path d="M 8.761719 0.3125 C 11.382812 0.3125 13.460938 -0.609375 15.164062 -2.5 L 12.539062 -4.792969 C 11.445312 -3.574219 10.195312 -3.136719 8.792969 -3.136719 C 6.339844 -3.136719 5.214844 -4.511719 4.886719 -6.558594 L 15.601562 -6.558594 C 15.675781 -6.777344 15.738281 -7.417969 15.738281 -8.058594 C 15.738281 -11.539062 13.976562 -15.925781 8.511719 -15.925781 C 3.230469 -15.925781 0.859375 -11.804688 0.859375 -7.746094 C 0.859375 -3.542969 3.386719 0.3125 8.761719 0.3125 Z M 4.886719 -9.308594 C 5.246094 -11.257812 6.230469 -12.726562 8.480469 -12.726562 C 10.460938 -12.726562 11.742188 -11.539062 11.992188 -9.308594 Z M 4.886719 -9.308594 "/></g></g></g><g fill="#545454" fill-opacity="1"><g transform="translate(265.657595, 248.57594)"><g><path d="M 2.265625 0 L 6.042969 0 L 6.042969 -8.542969 C 6.042969 -11.257812 7.417969 -12.414062 9.554688 -12.414062 C 11.507812 -12.414062 12.539062 -10.929688 12.539062 -8.886719 L 12.539062 0 L 16.300781 0 L 16.300781 -9.367188 C 16.300781 -12.632812 14.742188 -15.925781 10.648438 -15.925781 C 9.121094 -15.925781 7.292969 -15.320312 6.042969 -13.789062 L 6.042969 -15.601562 L 2.265625 -15.601562 Z M 2.265625 0 "/></g></g></g><g fill="#66545e" fill-opacity="1"><g transform="translate(145.669214, 273.974221)"><g><path d="M 1.597656 0 L 5.183594 0 C 9.359375 0 11.664062 -2.25 11.664062 -6.117188 C 11.664062 -10.152344 9.429688 -12.417969 5.203125 -12.417969 L 1.597656 -12.417969 Z M 3.832031 -2.046875 L 3.832031 -10.371094 L 5.167969 -10.371094 C 8.226562 -10.371094 9.429688 -9.15625 9.429688 -6.214844 C 9.429688 -3.109375 7.707031 -2.046875 4.964844 -2.046875 Z M 3.832031 -2.046875 "/></g></g></g><g fill="#66545e" fill-opacity="1"><g transform="translate(159.493002, 273.974221)"><g><path d="M 1.597656 0 L 9.859375 0 L 9.859375 -2.109375 L 3.832031 -2.109375 L 3.832031 -5.183594 L 9.449219 -5.183594 L 9.449219 -7.234375 L 3.832031 -7.234375 L 3.832031 -10.371094 L 9.859375 -10.371094 L 9.859375 -12.417969 L 1.597656 -12.417969 Z M 1.597656 0 "/></g></g></g><g fill="#66545e" fill-opacity="1"><g transform="translate(171.875384, 273.974221)"><g><path d="M 5.148438 0.140625 C 7.523438 0.140625 9.464844 -1.273438 9.464844 -3.621094 C 9.464844 -7.742188 3.453125 -6.953125 3.453125 -9.289062 C 3.453125 -10.082031 4.140625 -10.617188 5.019531 -10.617188 C 5.851562 -10.617188 6.589844 -10.132812 7.023438 -9.289062 L 8.875 -10.421875 C 8.023438 -11.933594 6.625 -12.601562 5.097656 -12.601562 C 3.003906 -12.601562 1.222656 -11.371094 1.222656 -9.175781 C 1.222656 -5.132812 7.234375 -5.992188 7.234375 -3.417969 C 7.234375 -2.539062 6.511719 -1.835938 5.183594 -1.835938 C 3.867188 -1.835938 2.769531 -2.523438 2.609375 -4.070312 L 0.394531 -3.507812 C 0.789062 -1.0625 2.953125 0.140625 5.148438 0.140625 Z M 5.148438 0.140625 "/></g></g></g><g fill="#66545e" fill-opacity="1"><g transform="translate(183.308549, 273.974221)"><g><path d="M 1.597656 0 L 3.832031 0 L 3.832031 -12.417969 L 1.597656 -12.417969 Z M 1.597656 0 "/></g></g></g><g fill="#66545e" fill-opacity="1"><g transform="translate(190.180188, 273.974221)"><g><path d="M 6.730469 0.175781 C 8.382812 0.175781 9.738281 -0.578125 10.40625 -1.75 L 10.597656 0 L 12.367188 0 L 12.367188 -6.714844 L 7.382812 -6.714844 L 7.382812 -4.914062 L 10.203125 -4.914062 C 9.957031 -3.023438 8.515625 -1.820312 6.730469 -1.820312 C 4.070312 -1.820312 2.933594 -3.832031 2.933594 -6.300781 C 2.933594 -8.605469 4.070312 -10.667969 6.695312 -10.667969 C 8.277344 -10.667969 9.578125 -9.914062 10.152344 -8.226562 L 12.128906 -9.050781 C 11.125 -11.371094 9.15625 -12.621094 6.714844 -12.621094 C 2.609375 -12.621094 0.71875 -9.613281 0.71875 -6.214844 C 0.71875 -2.804688 2.644531 0.175781 6.730469 0.175781 Z M 6.730469 0.175781 "/></g></g></g><g fill="#66545e" fill-opacity="1"><g transform="translate(205.102607, 273.974221)"><g><path d="M 1.597656 0 L 3.742188 0 L 3.742188 -8.710938 L 8.945312 0 L 11.179688 0 L 11.179688 -12.417969 L 9.035156 -12.417969 L 9.035156 -3.726562 L 3.8125 -12.417969 L 1.597656 -12.417969 Z M 1.597656 0 "/></g></g></g><g fill="#66545e" fill-opacity="1"><g transform="translate(219.321902, 273.974221)"><g><path d="M 5.148438 0.140625 C 7.523438 0.140625 9.464844 -1.273438 9.464844 -3.621094 C 9.464844 -7.742188 3.453125 -6.953125 3.453125 -9.289062 C 3.453125 -10.082031 4.140625 -10.617188 5.019531 -10.617188 C 5.851562 -10.617188 6.589844 -10.132812 7.023438 -9.289062 L 8.875 -10.421875 C 8.023438 -11.933594 6.625 -12.601562 5.097656 -12.601562 C 3.003906 -12.601562 1.222656 -11.371094 1.222656 -9.175781 C 1.222656 -5.132812 7.234375 -5.992188 7.234375 -3.417969 C 7.234375 -2.539062 6.511719 -1.835938 5.183594 -1.835938 C 3.867188 -1.835938 2.769531 -2.523438 2.609375 -4.070312 L 0.394531 -3.507812 C 0.789062 -1.0625 2.953125 0.140625 5.148438 0.140625 Z M 5.148438 0.140625 "/></g></g></g></svg>